<svg xmlns="http://www.w3.org/2000/svg" xmlns:xlink="http://www.w3.org/1999/xlink" viewBox="0 0 2787.03 3424.31"><defs><style>.cls-1,.cls-4{fill:none;}.cls-2{clip-path:url(#clip-path);}.cls-3{fill:#21accc;}.cls-4{stroke:#ffc897;stroke-miterlimit:10;stroke-width:30px;}</style><clipPath id="clip-path"><rect class="cls-1" x="691.1" y="1574" width="1920" height="1080"/></clipPath></defs><title>Asset 1</title><g id="Layer_2" data-name="Layer 2"><g id="pattern"><g class="cls-2"><rect class="cls-3" x="664.1" y="1557" width="1976" height="1120"/><path class="cls-4" d="M2462,2695.15s268.72-93.4,303-349c29.47-126.4-42.69-272-42.69-272s46.56-37.14-.47-185.09c-8.74-23.49-75.45-73-212-108.06s-105.81-102.11-99.65-111.68,21-31.26,34.88-43.08c10.32-8.77,86-51.6,14.3-147.86-33.44-43.6-99.65-2.94-121.59,19.81s-68.49,75.79-81.12,219.19c-12.62,52.46-15.39,34.26-181.54,96s-173.89,171.26-119.76,288.82c0,0-122.09,238.18,54.58,426.77,147.94,145.52,253.7,160.15,253.7,160.15S2349.69,2797.24,2462,2695.15Z"/><path class="cls-4" d="M1955.1,2099s383,158,767-25"/><path class="cls-4" d="M843.86,3342.49c150.31-89.32,406.62-141.33,458.46-528.15,44.61-191.26-64.59-411.61-64.59-411.61s70.46-56.2-.71-280.07c-13.22-35.55-114.17-110.4-320.81-163.51s-160.12-154.51-150.79-169,31.72-47.3,52.78-65.18c15.62-13.26,130.18-78.08,21.64-223.73-50.61-66-150.79-4.45-184,30s-103.63,114.67-122.74,331.67c-19.1,79.37-23.3,51.84-274.7,145.28S-4.72,2267.3,77.2,2445.19c0,0-184.75,360.39,82.57,645.77,223.87,220.19,236.14,210.24,334.74,266.43C559.75,3394.57,646.47,3459.8,843.86,3342.49Z"/><path class="cls-4" d="M76.88,2440.42s579.54,239.08,1160.59-37.83"/><path class="cls-4" d="M1719.86,1885.49c150.31-89.32,406.62-141.33,458.46-528.15,44.61-191.26-64.59-411.61-64.59-411.61s70.46-56.2-.71-280.07c-13.22-35.55-114.17-110.4-320.81-163.51s-160.12-154.51-150.79-169,31.72-47.3,52.78-65.18c15.62-13.26,130.18-78.08,21.64-223.73-50.61-66-150.79-4.45-184,30s-103.63,114.67-122.74,331.67c-19.1,79.37-23.3,51.84-274.7,145.28S871.28,810.3,953.2,988.19c0,0-184.75,360.39,82.57,645.77,223.87,220.19,236.14,210.24,334.74,266.43C1435.75,1937.57,1522.47,2002.8,1719.86,1885.49Z"/><path class="cls-4" d="M952.88,983.42s579.54,239.08,1160.59-37.83"/></g></g></g></svg>