<?xml version="1.0" encoding="UTF-8" standalone="no"?>
<!-- Created with Inkscape (http://www.inkscape.org/) -->

<svg
   xmlns:dc="http://purl.org/dc/elements/1.1/"
   xmlns:cc="http://creativecommons.org/ns#"
   xmlns:rdf="http://www.w3.org/1999/02/22-rdf-syntax-ns#"
   xmlns:svg="http://www.w3.org/2000/svg"
   xmlns="http://www.w3.org/2000/svg"
   xmlns:sodipodi="http://sodipodi.sourceforge.net/DTD/sodipodi-0.dtd"
   xmlns:inkscape="http://www.inkscape.org/namespaces/inkscape"
   width="100"
   height="100"
   viewBox="0 0 26.458334 26.458332"
   version="1.1"
   id="svg8"
   sodipodi:docname="return-icon.svg"
   inkscape:version="0.92.1 r15371">
  <defs
     id="defs2" />
  <sodipodi:namedview
     id="base"
     pagecolor="#d2d2d2"
     bordercolor="#666666"
     borderopacity="1.0"
     inkscape:pageopacity="0"
     inkscape:pageshadow="2"
     inkscape:zoom="2.8"
     inkscape:cx="-234.8595"
     inkscape:cy="87.078661"
     inkscape:document-units="mm"
     inkscape:current-layer="layer1"
     showgrid="false"
     inkscape:window-width="3200"
     inkscape:window-height="1644"
     inkscape:window-x="-16"
     inkscape:window-y="-16"
     inkscape:window-maximized="1"
     fit-margin-top="0"
     fit-margin-left="0"
     fit-margin-right="0"
     fit-margin-bottom="0"
     units="px" />
  <metadata
     id="metadata5">
    <rdf:RDF>
      <cc:Work
         rdf:about="">
        <dc:format>image/svg+xml</dc:format>
        <dc:type
           rdf:resource="http://purl.org/dc/dcmitype/StillImage" />
        <dc:title />
      </cc:Work>
    </rdf:RDF>
  </metadata>
  <g
     inkscape:label="Layer 1"
     inkscape:groupmode="layer"
     id="layer1"
     transform="translate(-48.520006,-120.33958)">
    <path
       style="opacity:1;fill:#333333;fill-opacity:1;fill-rule:evenodd;stroke:none;stroke-width:1.58700013;stroke-linecap:round;stroke-linejoin:bevel;stroke-miterlimit:4;stroke-dasharray:none;stroke-dashoffset:0;stroke-opacity:1"
       d="m 71.354677,124.60071 c -0.18787,0 -0.283128,0.0211 -0.444183,0.0978 -0.103206,0.0492 -0.159769,0.0903 -0.254903,0.18479 -0.10508,0.10446 -0.136328,0.14932 -0.222229,0.31962 -0.927413,1.83811 -1.934042,3.25793 -3.180405,4.48583 -1.221374,1.20322 -2.566906,2.09117 -4.068759,2.68495 -1.309998,0.51792 -2.588236,0.78099 -4.016357,0.82654 l -0.336793,0.0112 -1.75e-4,-1.5274 c -3.25e-4,-1.68619 0.0025,-1.62646 -0.101205,-1.83343 -0.07509,-0.14911 -0.167315,-0.2605 -0.291886,-0.35264 -0.343515,-0.25409 -0.824707,-0.2592 -1.166373,-0.0124 -0.07135,0.0516 -0.127294,0.1062 -1.935217,1.89135 -3.353179,3.31089 -3.970401,3.92678 -4.024527,4.01587 -0.180672,0.29744 -0.193992,0.64623 -0.03698,0.96882 0.07722,0.15862 -0.0511,0.0275 2.326049,2.37792 0.841224,0.83176 1.878966,1.85872 2.306117,2.28216 1.255711,1.24476 1.347134,1.33143 1.474004,1.39743 0.187043,0.0972 0.419357,0.13818 0.612285,0.10782 0.3812,-0.06 0.676285,-0.31889 0.809315,-0.70987 0.01524,-0.0448 0.02186,-0.41988 0.02824,-1.59608 l 0.0087,-1.53738 0.343252,-0.0112 c 2.93601,-0.0914 5.70929,-1.00681 7.819282,-2.5812 0.505043,-0.37683 0.910195,-0.73079 1.372033,-1.19873 1.831699,-1.85588 3.047925,-4.29234 3.669706,-7.35163 0.09771,-0.4809 0.22183,-1.26535 0.276931,-1.75065 0.03387,-0.29783 -0.0037,-0.51452 -0.123446,-0.70891 -0.191793,-0.31191 -0.487266,-0.48054 -0.842038,-0.48054 z"
       id="path4490"
       inkscape:connector-curvature="0"
       sodipodi:nodetypes="cccccccccccccccccccccccccccccc" />
  </g>
</svg>
